PathFileType	4	(X/Y/Z)	C:/Users/opensim2020/Desktop/walking_exp_matlab/subject02/subject02_trc/subject02_walking16_run_cyclic.trc	
DataRate	CameraRate	NumFrames	NumMarkers	Units	OrigDataRate	OrigDataStartFrame	OrigNumFrames	
100.00	100.00	7	51	mm	100.00	187	60	
Frame#	Time	RTOE			LSHO			LELB			RELB			RFIN			LTHI			LKNE			RWRB			RUPA			LTIB			RASI			LANK			LTOE			RSHO			RWRA			RFRM			LASI			STRN			LFHD			RTHI			RFHD			LWRB			LFIN			LUPA			RKNE			RBHD			LFRM			C7			LWRA			RTIB			CLAV			LHEE			RANK			LBHD			RBAK			RHEE			T10			LPSI			RPSI			*39			*40			*41			*42			*43			*44			*45			*46			*47			*48			*49			*50			
		X1	Y1	Z1	X2	Y2	Z2	X3	Y3	Z3	X4	Y4	Z4	X5	Y5	Z5	X6	Y6	Z6	X7	Y7	Z7	X8	Y8	Z8	X9	Y9	Z9	X10	Y10	Z10	X11	Y11	Z11	X12	Y12	Z12	X13	Y13	Z13	X14	Y14	Z14	X15	Y15	Z15	X16	Y16	Z16	X17	Y17	Z17	X18	Y18	Z18	X19	Y19	Z19	X20	Y20	Z20	X21	Y21	Z21	X22	Y22	Z22	X23	Y23	Z23	X24	Y24	Z24	X25	Y25	Z25	X26	Y26	Z26	X27	Y27	Z27	X28	Y28	Z28	X29	Y29	Z29	X30	Y30	Z30	X31	Y31	Z31	X32	Y32	Z32	X33	Y33	Z33	X34	Y34	Z34	X35	Y35	Z35	X36	Y36	Z36	X37	Y37	Z37	X38	Y38	Z38	X39	Y39	Z39	X40	Y40	Z40	X41	Y41	Z41	X42	Y42	Z42	X43	Y43	Z43	X44	Y44	Z44	X45	Y45	Z45	X46	Y46	Z46	X47	Y47	Z47	X48	Y48	Z48	X49	Y49	Z49	X50	Y50	Z50	X51	Y51	Z51	

21	0.200	170.52380	-1196.74146	121.79800	-215.80608	-899.25708	1423.35767	-295.26697	-913.38751	1080.68250	323.48849	-1019.12158	1220.41772	223.57640	-839.91998	1008.53180	-162.26997	-960.35773	648.37628	-108.00114	-950.42828	450.14020	246.51402	-901.00165	1009.18219	264.81625	-978.41632	1349.52551	-100.07643	-1018.19104	276.53284	118.30839	-908.80334	957.87762	-47.55054	-1063.80530	65.88491	-48.17303	-909.00189	29.93407	144.10672	-879.32184	1473.45654	206.98770	-886.47723	1049.30054	288.60648	-957.52905	1113.26514	-130.82106	-925.86310	968.07605	-16.42714	-828.56995	1223.03381	-108.71951	-818.50409	1705.75354	211.82628	-952.91650	643.24683	36.35049	-822.49902	1695.32080	-109.98079	-729.87158	1078.71204	-71.95393	-680.93323	1108.95886	-292.64218	-934.33936	1220.67224	186.03668	-942.04828	445.85278	23.62759	-949.92773	1593.82617	-200.54785	-815.07446	1063.97437	-38.92890	-968.17358	1493.02649	-111.36063	-741.48218	1135.05176	176.97890	-1101.89722	361.19531	-44.37576	-841.66046	1403.91797	1.14962	-1107.49072	42.59919	129.82956	-1257.90234	257.82535	-118.39451	-933.61902	1608.36340	50.13346	-1055.55969	1360.79321	66.08097	-1313.93054	235.23732	-0.73680	-1079.91516	1257.33337	-41.11235	-1114.73145	1040.24341	75.03648	-1110.33594	1045.55298				-3357.30664	2845.92993	1034.27612																									-27.09867	-935.28333	1755.42053			 
22	0.210	178.07953	-1113.46838	114.08515	-216.90131	-862.96832	1419.70032	-275.91745	-846.20886	1073.93066	326.72534	-999.14990	1227.12439	237.39017	-827.05212	1003.75610	-156.36891	-937.01617	637.85535	-105.42105	-921.55975	448.53082	259.24637	-888.84180	1007.77216	264.47791	-950.72089	1352.49170	-99.25475	-1006.86566	280.94644	117.71395	-873.79938	947.82092	-47.53396	-1061.44348	67.17805	-47.91246	-909.17352	29.66095	143.95193	-847.32336	1470.74280	218.15735	-872.04749	1045.61597	296.78247	-941.37250	1115.51172	-132.28865	-894.21594	959.68018	-16.73899	-790.36115	1218.61829	-106.56912	-780.91809	1704.34607	213.95348	-897.90271	647.65234	38.33110	-785.75574	1691.76721	-86.23829	-672.22711	1107.65796	-48.33079	-629.43127	1146.40625	-283.29724	-881.26886	1211.85156	187.68123	-878.05872	449.26248	23.33885	-913.34863	1590.92493	-177.59840	-751.10138	1076.17603	-40.27172	-932.80499	1488.92090	-91.23153	-691.43262	1161.55591	182.46223	-1032.91736	357.25583	-44.99471	-803.49469	1399.79102	1.30722	-1107.30420	44.13540	139.09097	-1184.35962	245.59204	-118.30659	-896.23584	1607.44873	44.03213	-1020.11169	1352.91650	77.08955	-1241.28210	219.59454	-3.20484	-1043.21533	1248.47083	-39.47010	-1080.51135	1030.09448	76.95827	-1074.82764	1034.00342				-3357.27466	2846.20776	1034.34619																									-25.13268	-897.87048	1753.22144			 
23	0.220	184.68875	-1027.09680	106.64247	-216.58862	-825.97516	1418.39807	-257.36642	-778.26697	1073.99609	329.91162	-979.66199	1237.35327	249.02249	-813.42365	1005.20660	-155.12431	-915.55249	636.22974	-102.86259	-898.15192	445.72748	269.91061	-875.39362	1012.09766	263.47495	-924.94012	1358.05396	-99.40323	-995.40784	282.57239	116.13365	-838.16919	938.77991	-47.54413	-1061.66858	69.11703	-47.46420	-909.37946	29.56724	145.03563	-815.43604	1468.91418	227.78401	-856.94104	1047.68518	303.85663	-924.15509	1123.07690	-134.05208	-861.68774	951.38892	-17.84416	-751.87189	1217.83777	-103.69250	-743.29767	1704.04602	215.72490	-846.14124	652.92755	40.73347	-749.13312	1688.90173	-65.58025	-618.05945	1139.64624	-27.91308	-582.41821	1185.37048	-273.62067	-826.80438	1208.56738	188.11809	-815.26666	456.22510	23.30456	-877.08673	1588.69421	-156.59517	-688.84186	1093.52148	-40.59912	-895.76776	1487.92883	-73.54626	-644.07953	1190.06641	186.93382	-964.27802	354.93906	-44.89691	-765.74500	1398.44604	1.08124	-1107.99780	46.38044	148.27473	-1109.18030	232.45004	-117.92442	-858.75507	1607.81750	37.34306	-984.34521	1347.24939	88.18760	-1166.44446	202.25922	-5.30285	-1005.50861	1247.29150	-37.36244	-1048.49194	1019.94995	78.73312	-1040.25720	1021.89508				-3360.44629	2845.29639	1034.32324																									-22.48393	-860.65240	1751.98865			 
24	0.230	189.59470	-938.61218	99.37473	-215.87004	-786.59473	1418.68738	-239.71783	-712.24042	1080.55017	332.19022	-957.87988	1251.33325	258.17630	-798.50446	1011.51514	-154.71307	-892.21320	634.63306	-101.66253	-883.39581	442.61319	278.22440	-860.55762	1020.51355	260.61301	-898.99487	1366.74268	-99.14782	-986.32916	279.84964	116.55773	-802.38000	929.95923	-48.18176	-1060.98755	70.34319	-47.25246	-909.51007	29.61650	146.07169	-782.05377	1468.75183	235.43723	-840.45972	1054.31409	309.16946	-905.52100	1134.32739	-135.53729	-828.00696	942.70349	-18.03360	-713.81854	1217.16150	-100.61009	-705.82269	1704.45227	217.17435	-795.91003	658.67487	43.70098	-712.49280	1686.92883	-48.43785	-566.90594	1173.80359	-10.75159	-538.88086	1224.97949	-264.96304	-771.20685	1210.82959	187.55237	-753.73761	464.60516	23.94185	-840.32465	1587.23511	-138.01016	-629.29999	1115.43079	-40.78651	-857.09332	1488.29504	-58.43871	-599.51129	1220.11121	190.79289	-895.98187	353.40973	-44.07693	-727.95807	1398.05151	0.11663	-1108.07788	49.05637	157.22687	-1032.26013	218.51752	-116.84451	-821.10791	1608.57935	32.82341	-948.07019	1344.17859	99.00337	-1089.37585	183.81480	-5.55270	-967.77740	1246.06165	-32.29675	-1013.66107	1019.81903	77.48324	-1005.88385	1015.59619				-3357.16846	2845.99292	1034.53662																									-19.08731	-823.45410	1751.29407			 
25	0.240	194.49997	-849.46649	93.20620	-214.87279	-744.89600	1421.11316	-224.09732	-648.89172	1092.57446	332.52319	-933.53833	1267.07971	265.57260	-781.78351	1020.73413	-153.34387	-865.29584	632.83136	-101.23132	-873.71234	438.59128	284.73306	-844.00055	1031.50964	256.50949	-872.09430	1377.63843	-97.81924	-979.13055	276.58313	117.91606	-765.02124	922.93420	-48.02803	-1060.10266	72.62222	-47.25872	-909.77130	29.47898	146.32185	-747.79669	1470.78503	241.60800	-821.97046	1064.11975	312.93112	-885.22546	1147.94934	-137.70926	-792.13440	934.19733	-17.89597	-675.26593	1217.91553	-97.70262	-668.36041	1705.31433	217.70940	-746.58337	664.47528	46.47131	-675.14343	1686.01819	-34.78056	-520.01062	1209.57849	2.36186	-499.45547	1264.25073	-257.18292	-715.04071	1217.04749	186.32852	-693.95581	473.06393	25.49364	-803.02991	1586.61987	-122.37524	-572.99915	1141.27979	-41.47503	-818.54572	1488.58716	-45.69492	-558.12335	1250.65857	194.28082	-827.79974	351.56262	-42.19823	-690.06757	1398.96521	0.05626	-1107.96472	53.96803	165.39841	-953.58618	204.53456	-114.98777	-783.38501	1609.35962	31.95780	-911.31427	1343.24402	109.22906	-1009.64496	165.14900	-5.74338	-929.70593	1244.79297	-29.80952	-976.76050	1021.84637	78.87868	-968.66772	1020.68616				-3357.33740	2845.92749	1034.56519																									-15.37166	-786.23212	1751.01355			 
26	0.250	198.23361	-759.54236	87.99529	-212.22960	-701.91217	1425.89160	-212.06284	-588.20416	1107.41455	332.49863	-908.74030	1283.13818	271.83072	-762.61902	1031.73291	-151.20396	-837.55048	632.53876	-101.74187	-863.89899	434.83578	289.72861	-825.06616	1044.30212	253.08336	-843.74615	1389.27344	-97.49238	-972.67841	274.39987	121.59076	-727.47211	920.33557	-48.70673	-1058.59961	76.65109	-47.68572	-909.82214	29.16728	145.83235	-714.05463	1474.56470	245.91641	-801.19189	1075.80688	315.77914	-863.71893	1162.70410	-140.28336	-755.81305	925.32825	-16.08395	-636.13306	1219.94580	-94.11351	-630.66980	1706.83325	217.18793	-698.77454	670.28162	49.67675	-637.67145	1686.75671	-24.48994	-476.63397	1245.08398	12.60767	-463.18234	1301.41846	-249.75830	-658.78064	1227.57019	184.88757	-635.82629	481.40936	27.88771	-765.25928	1586.90625	-109.73120	-519.78461	1168.52869	-41.94498	-781.12555	1488.72974	-36.32712	-518.99982	1280.85168	197.57664	-759.66296	348.78012	-39.10347	-651.78754	1401.15552	-1.00392	-1107.04980	60.92150	172.98671	-873.35144	190.90495	-112.40598	-745.52399	1610.70093	33.20709	-874.02368	1343.26111	118.71180	-927.80255	147.15094	-5.62914	-890.80621	1244.36768	-28.49129	-938.37927	1023.55542	80.37843	-931.01184	1024.61255				-3357.42358	2845.91064	1034.75671																									-11.59081	-748.90582	1751.56116			 
27	0.260	200.19389	-668.43433	84.47803	-208.04288	-659.14093	1432.96741	-202.86931	-529.23535	1123.97571	332.17334	-884.28082	1298.84375	277.32211	-741.33154	1044.01843	-149.23468	-810.86273	631.55969	-102.74138	-853.19348	434.93106	293.63971	-804.01801	1057.77612	250.60271	-814.11731	1401.24463	-98.34295	-967.00354	281.43182	123.72992	-687.23462	924.05249	-50.52877	-1056.34387	82.68687	-48.15113	-909.96661	28.86171	145.16080	-681.19470	1479.39624	250.44875	-778.81635	1088.24097	317.76688	-841.29193	1177.76489	-138.37506	-719.19421	919.48541	-12.52868	-596.73810	1222.79541	-90.61754	-593.00500	1709.52026	215.83588	-653.06183	676.42737	53.14429	-600.09094	1689.21375	-17.15537	-436.38940	1277.95801	19.28093	-429.81442	1335.41675	-243.01404	-603.48859	1241.07166	183.20164	-579.77051	490.24493	30.99888	-727.47107	1589.11401	-101.59163	-470.54602	1195.08801	-41.80836	-744.70361	1489.32910	-29.65426	-482.25201	1308.84741	200.42490	-691.87726	345.58533	-35.22777	-613.33405	1404.44189	-3.35903	-1105.92590	71.14191	179.29703	-791.33533	177.57323	-109.25990	-707.66998	1613.18176	34.06029	-836.11011	1344.75720	126.37714	-843.43011	129.30083	-5.32827	-851.58734	1245.25867	-27.27467	-899.09637	1025.09216	81.37636	-891.55219	1027.91980				-3360.34204	2845.27124	1034.42273																									-8.04010	-711.38971	1753.62256			 
